# xmcd
#
# Track frame offsets:
#	183
#	11975
#	23658
#	35373
#	44920
#	56063
#	65833
#	75328
#	84058
#	94628
#	106910
#	116133
#	128548
#	136608
#	146433
#	157158
#	169198
#	181223
#	192898
#	204788
#	216975
#	227098
#	236880
#	247870
#	260975
#	271548
#	282483
#
# Disc length: 3903 seconds
#
# Revision: 1
# Processed by: cddbd v1.5.1PL2 Copyright (c) Steve Scherf et al.
# Submitted via: audiograbber 1.83.01
#
DISCID=7a0f3d1b
DTITLE=Lloyd Price - TNT 324/346
DYEAR=1992
DGENRE=
TTITLE0=Personality
TTITLE1=Three Little Pigs
TTITLE2=Where Were You (On Our Wedding Day)
TTITLE3=Come Into My Heart
TTITLE4=Never Let Me Go
TTITLE5=Lady Luck
TTITLE6=Have You Ever Had The Blues
TTITLE7=Is It Really Love
TTITLE8=I'm Gonna Get Married
TTITLE9=You Need Love
TTITLE10=Won't Cha Come Home
TTITLE11=Just Because
TTITLE12=Lawdy Miss Clawdy
TTITLE13=Why
TTITLE14=Stagger Lee
TTITLE15=What Is This Thing Called Love
TTITLE16=Blue Skies
TTITLE17=Because Of You
TTITLE18=Undecided
TTITLE19=Let's Fall In Love
TTITLE20=Don't Blame Me
TTITLE21=In A Shanty Old Shanty Town
TTITLE22=Mean To Me
TTITLE23=Don't Take You Love From Me
TTITLE24=Jeepers Creepers
TTITLE25=Little Volcano
TTITLE26=Five Foot Two
EXTD=
EXTT0=
EXTT1=
EXTT2=
EXTT3=
EXTT4=
EXTT5=
EXTT6=
EXTT7=
EXTT8=
EXTT9=
EXTT10=
EXTT11=
EXTT12=
EXTT13=
EXTT14=
EXTT15=
EXTT16=
EXTT17=
EXTT18=
EXTT19=
EXTT20=
EXTT21=
EXTT22=
EXTT23=
EXTT24=
EXTT25=
EXTT26=
PLAYORDER=
